<svg width="428" height="441" viewBox="0 0 428 441" fill="none" xmlns="http://www.w3.org/2000/svg">
<path d="M342.278 283.88C371.395 316.343 407.188 372.811 421.446 396.987L420.334 401.476L438.92 439.428L532.051 63.5164C403.997 13.9263 140.451 -76.3779 110.693 -40.8743C73.496 3.50525 113.721 64.6839 141.134 100.655C168.548 136.626 259.342 178.772 283.622 191.338C307.901 203.903 305.882 243.302 342.278 283.88Z" fill="#ECBBA8"/>
<path d="M340.137 266.08C350.065 293.313 384.822 358.933 400.959 388.339C408.75 412.66 431.008 432.903 441.164 439.984L534.99 61.2672C393.816 16.5649 107.863 -66.4672 93.4492 -40.9778C75.432 -9.116 125.786 68.8642 153.488 108.48C181.19 148.095 215.404 151.808 270.702 180.991C326 210.174 327.728 232.04 340.137 266.08Z" fill="white"/>
<path d="M395.028 301.713C414.175 339.804 443.03 372.361 455.064 383.878L534.156 64.6335C392.285 21.9421 107.062 -60.8299 101.14 -50.3871C93.7371 -37.3335 136.904 88.8879 198.353 110.067C259.802 131.246 281.044 165.688 315.86 188.606C350.676 211.523 371.094 254.098 395.028 301.713Z" fill="#42A8C3"/>
<path d="M402.751 241.694C420.198 271.265 436.625 282.839 442.658 284.929C471.236 275.335 452.527 245.093 429.849 194.812C407.172 144.531 345.561 179.29 358.048 184.17C370.536 189.05 380.943 204.729 402.751 241.694Z" fill="#3999B2"/>
<path d="M305.46 110.4C324.665 109.799 344.065 134.852 350.797 136.52C355.347 166.231 347.461 149.985 324.458 144.286C301.454 138.587 286.255 111.002 305.46 110.4Z" fill="#3999B2"/>
<path d="M478.103 141.858C501.472 160.986 499.125 182.796 495.031 191.31L500.08 192.561C504.008 193.534 511.091 188.5 508.004 160.58C505.372 136.785 492.217 128.653 489.09 127.121C489.821 127.389 491.185 127.829 493.355 128.367C509.065 132.259 529.278 144.413 515.464 108.833C501.65 73.2538 451.672 106.726 435.973 107.6C420.273 108.475 439.17 94.6957 422.436 70.8983C405.703 47.1009 440.201 52.075 432.028 32.185C423.854 12.295 397.803 23.7059 375.679 36.0898C353.555 48.4736 394.934 59.3208 397.641 79.6429C400.313 99.7034 379.814 79.7876 340.504 41.5963L338.957 40.0931C298.639 0.92483 234.415 -6.64949 251.391 -0.657238C268.367 5.33502 271.882 10.3742 293.392 38.9278C314.902 67.4814 357.111 72.579 391.803 103.207C426.495 133.836 448.892 117.947 478.103 141.858Z" fill="#3999B2"/>
<path d="M471.81 83.1306C492.993 76.4686 513.631 81.7802 521.302 85.2689L532.329 62.3942C510.865 55.2898 464.768 41.3683 452.097 42.5169C436.258 43.9525 447.232 62.1539 445.008 71.1311C442.784 80.1082 445.332 91.4581 471.81 83.1306Z" fill="#3999B2"/>
</svg>
